<svg xmlns="http://www.w3.org/2000/svg" xmlns:xlink="http://www.w3.org/1999/xlink" width="466" zoomAndPan="magnify" viewBox="0 0 349.5 307.499996" height="410" preserveAspectRatio="xMidYMid meet" version="1.0"><defs><g/><clipPath id="6d37d91895"><path d="M 0.0351562 0 L 348.964844 0 L 348.964844 307 L 0.0351562 307 Z M 0.0351562 0 " clip-rule="nonzero"/></clipPath></defs><g clip-path="url(#6d37d91895)"><path fill="#ffffff" d="M 0.0351562 0 L 348.964844 0 L 348.964844 307 L 0.0351562 307 Z M 0.0351562 0 " fill-opacity="1" fill-rule="nonzero"/><path fill="#aa0505" d="M 0.0351562 0 L 348.964844 0 L 348.964844 307 L 0.0351562 307 Z M 0.0351562 0 " fill-opacity="1" fill-rule="nonzero"/></g><g fill="#ffffff" fill-opacity="1"><g transform="translate(63.97049, 173.341831)"><g><path d="M 1.890625 0 L 1.890625 -42.875 L 14.96875 -42.875 L 18.5625 -16.71875 L 22.15625 -42.875 L 35.328125 -42.875 L 35.328125 0 L 27.5 0 L 27.5 -30.890625 L 22.5625 0 L 14.875 0 L 9.625 -30.890625 L 9.625 0 Z M 1.890625 0 "/></g></g></g><g fill="#ffffff" fill-opacity="1"><g transform="translate(101.204169, 173.341831)"><g><path d="M 8.390625 0.40625 C 5.554688 0.40625 3.613281 -0.53125 2.5625 -2.40625 C 1.519531 -4.289062 1 -6.984375 1 -10.484375 C 1 -13.335938 1.375 -15.53125 2.125 -17.0625 C 2.875 -18.59375 3.910156 -19.71875 5.234375 -20.4375 C 6.566406 -21.15625 8.597656 -21.945312 11.328125 -22.8125 L 13.71875 -23.609375 L 13.71875 -27.34375 C 13.71875 -28.3125 13.523438 -29.050781 13.140625 -29.5625 C 12.765625 -30.082031 12.3125 -30.34375 11.78125 -30.34375 C 11.3125 -30.34375 10.898438 -30.125 10.546875 -29.6875 C 10.203125 -29.257812 10.03125 -28.679688 10.03125 -27.953125 L 10.03125 -25.75 L 1.546875 -25.75 L 1.546875 -26.953125 C 1.546875 -30.546875 2.382812 -33.109375 4.0625 -34.640625 C 5.75 -36.171875 8.488281 -36.9375 12.28125 -36.9375 C 15.300781 -36.9375 17.757812 -36.144531 19.65625 -34.5625 C 21.550781 -32.976562 22.5 -30.738281 22.5 -27.84375 L 22.5 0 L 13.828125 0 L 13.828125 -4.34375 C 13.390625 -2.84375 12.695312 -1.675781 11.75 -0.84375 C 10.800781 -0.0078125 9.679688 0.40625 8.390625 0.40625 Z M 11.828125 -6.390625 C 12.492188 -6.390625 12.96875 -6.660156 13.25 -7.203125 C 13.53125 -7.753906 13.671875 -8.429688 13.671875 -9.234375 L 13.671875 -19.40625 C 12.378906 -18.914062 11.421875 -18.285156 10.796875 -17.515625 C 10.179688 -16.753906 9.875 -15.691406 9.875 -14.328125 L 9.875 -9.625 C 9.875 -7.46875 10.523438 -6.390625 11.828125 -6.390625 Z M 11.828125 -6.390625 "/></g></g></g><g fill="#ffffff" fill-opacity="1"><g transform="translate(125.311236, 173.341831)"><g><path d="M 1.75 -36.53125 L 10.484375 -36.53125 L 10.484375 -32.484375 C 10.910156 -33.921875 11.664062 -35.03125 12.75 -35.8125 C 13.832031 -36.59375 15.171875 -36.984375 16.765625 -36.984375 L 16.765625 -29.6875 C 15.535156 -29.6875 14.179688 -29.507812 12.703125 -29.15625 C 11.222656 -28.8125 10.484375 -28.410156 10.484375 -27.953125 L 10.484375 0 L 1.75 0 Z M 1.75 -36.53125 "/></g></g></g><g fill="#ffffff" fill-opacity="1"><g transform="translate(142.480652, 173.341831)"><g><path d="M 6.390625 0 L 0.546875 -36.53125 L 9.28125 -36.53125 L 11.078125 -18.0625 L 11.375 -12.125 L 11.734375 -18.109375 L 13.71875 -36.53125 L 22.453125 -36.53125 L 16.515625 0 Z M 6.390625 0 "/></g></g></g><g fill="#ffffff" fill-opacity="1"><g transform="translate(165.489671, 173.341831)"><g><path d="M 11.984375 0.40625 C 8.222656 0.40625 5.523438 -0.625 3.890625 -2.6875 C 2.265625 -4.757812 1.453125 -7.835938 1.453125 -11.921875 L 1.453125 -26.59375 C 1.453125 -29.957031 2.414062 -32.519531 4.34375 -34.28125 C 6.269531 -36.050781 8.960938 -36.9375 12.421875 -36.9375 C 19.441406 -36.9375 22.953125 -33.488281 22.953125 -26.59375 L 22.953125 -23.953125 C 22.953125 -21.296875 22.921875 -19.132812 22.859375 -17.46875 L 10.1875 -17.46875 L 10.1875 -10.375 C 10.1875 -9.113281 10.316406 -8.125 10.578125 -7.40625 C 10.847656 -6.695312 11.414062 -6.34375 12.28125 -6.34375 C 12.945312 -6.34375 13.421875 -6.539062 13.703125 -6.9375 C 13.984375 -7.332031 14.144531 -7.785156 14.1875 -8.296875 C 14.238281 -8.816406 14.265625 -9.578125 14.265625 -10.578125 L 14.265625 -14.125 L 22.953125 -14.125 L 22.953125 -12.03125 C 22.953125 -7.769531 22.128906 -4.628906 20.484375 -2.609375 C 18.835938 -0.597656 16.003906 0.40625 11.984375 0.40625 Z M 14.265625 -21.8125 L 14.265625 -26.5 C 14.265625 -29.125 13.617188 -30.4375 12.328125 -30.4375 C 10.859375 -30.4375 10.125 -29.125 10.125 -26.5 L 10.125 -21.8125 Z M 14.265625 -21.8125 "/></g></g></g><g fill="#ffffff" fill-opacity="1"><g transform="translate(189.846294, 173.341831)"><g><path d="M 1.75 0 L 1.75 -43.125 L 10.625 -43.125 L 10.625 0 Z M 1.75 0 "/></g></g></g><g fill="#ffffff" fill-opacity="1"><g transform="translate(202.224249, 173.341831)"><g><path d="M 11.78125 0.40625 C 4.5625 0.40625 0.953125 -3.253906 0.953125 -10.578125 L 1 -13.46875 L 9.734375 -13.46875 L 9.78125 -9.1875 C 9.78125 -8.320312 9.945312 -7.660156 10.28125 -7.203125 C 10.613281 -6.753906 11.160156 -6.53125 11.921875 -6.53125 C 13.085938 -6.53125 13.671875 -7.476562 13.671875 -9.375 C 13.671875 -10.78125 13.394531 -11.878906 12.84375 -12.671875 C 12.300781 -13.472656 11.429688 -14.320312 10.234375 -15.21875 L 5.59375 -18.8125 C 3.988281 -20.039062 2.835938 -21.3125 2.140625 -22.625 C 1.441406 -23.945312 1.09375 -25.804688 1.09375 -28.203125 C 1.09375 -30.054688 1.582031 -31.640625 2.5625 -32.953125 C 3.550781 -34.273438 4.859375 -35.269531 6.484375 -35.9375 C 8.117188 -36.601562 9.929688 -36.9375 11.921875 -36.9375 C 19.015625 -36.9375 22.5625 -33.40625 22.5625 -26.34375 L 22.5625 -25.65625 L 13.53125 -25.65625 L 13.53125 -27.046875 C 13.53125 -27.910156 13.382812 -28.648438 13.09375 -29.265625 C 12.8125 -29.878906 12.335938 -30.1875 11.671875 -30.1875 C 11.078125 -30.1875 10.617188 -30.007812 10.296875 -29.65625 C 9.984375 -29.3125 9.828125 -28.84375 9.828125 -28.25 C 9.828125 -26.914062 10.34375 -25.882812 11.375 -25.15625 L 16.765625 -21.203125 C 18.691406 -19.773438 20.171875 -18.222656 21.203125 -16.546875 C 22.234375 -14.867188 22.75 -12.75 22.75 -10.1875 C 22.75 -6.789062 21.785156 -4.175781 19.859375 -2.34375 C 17.929688 -0.507812 15.238281 0.40625 11.78125 0.40625 Z M 11.78125 0.40625 "/></g></g></g><g fill="#ffffff" fill-opacity="1"><g transform="translate(225.932029, 173.341831)"><g><path d="M 0.75 0 L 4.890625 -42.875 L 19.40625 -42.875 L 23.5 0 L 15.375 0 L 14.765625 -6.9375 L 9.578125 -6.9375 L 9.078125 0 Z M 10.234375 -13.78125 L 14.125 -13.78125 L 12.234375 -35.578125 L 11.828125 -35.578125 Z M 10.234375 -13.78125 "/></g></g></g><g fill="#ffffff" fill-opacity="1"><g transform="translate(250.138909, 173.341831)"><g><path d="M 1.890625 -42.875 L 13.21875 -42.875 C 16.644531 -42.875 19.085938 -41.765625 20.546875 -39.546875 C 22.015625 -37.335938 22.75 -34.101562 22.75 -29.84375 C 22.75 -25.582031 22.097656 -22.367188 20.796875 -20.203125 C 19.503906 -18.046875 17.179688 -16.96875 13.828125 -16.96875 L 10.328125 -16.96875 L 10.328125 0 L 1.890625 0 Z M 10.828125 -24.703125 C 11.859375 -24.703125 12.613281 -24.890625 13.09375 -25.265625 C 13.582031 -25.648438 13.898438 -26.203125 14.046875 -26.921875 C 14.191406 -27.640625 14.265625 -28.664062 14.265625 -30 C 14.265625 -31.789062 14.066406 -33.082031 13.671875 -33.875 C 13.273438 -34.675781 12.476562 -35.078125 11.28125 -35.078125 L 10.328125 -35.078125 L 10.328125 -24.703125 Z M 10.828125 -24.703125 "/></g></g></g><g fill="#ffffff" fill-opacity="1"><g transform="translate(273.696935, 173.341831)"><g><path d="M 1.5 0 L 1.5 -42.875 L 9.78125 -42.875 L 9.78125 0 Z M 1.5 0 "/></g></g></g></svg>