<svg xmlns="http://www.w3.org/2000/svg" xmlns:xlink="http://www.w3.org/1999/xlink" width="466" zoomAndPan="magnify" viewBox="0 0 349.5 307.499996" height="410" preserveAspectRatio="xMidYMid meet" version="1.0"><defs><g/><clipPath id="85dfb46bda"><path d="M 0.0351562 0 L 348.964844 0 L 348.964844 307 L 0.0351562 307 Z M 0.0351562 0 " clip-rule="nonzero"/></clipPath></defs><g clip-path="url(#85dfb46bda)"><path fill="#ffffff" d="M 0.0351562 0 L 348.964844 0 L 348.964844 307 L 0.0351562 307 Z M 0.0351562 0 " fill-opacity="1" fill-rule="nonzero"/><path fill="#e8eeff" d="M 0.0351562 0 L 348.964844 0 L 348.964844 307 L 0.0351562 307 Z M 0.0351562 0 " fill-opacity="1" fill-rule="nonzero"/></g><g fill="#000000" fill-opacity="1"><g transform="translate(49.215831, 162.359684)"><g><path d="M 14.59375 0 L 8.546875 0 L 8.546875 -23.484375 L 0.796875 -23.484375 L 0.796875 -28.515625 L 22.328125 -28.515625 L 22.328125 -23.484375 L 14.59375 -23.484375 Z M 14.59375 0 "/></g></g></g><g fill="#000000" fill-opacity="1"><g transform="translate(72.340031, 162.359684)"><g><path d="M 20 0 L 3.59375 0 L 3.59375 -28.515625 L 20 -28.515625 L 20 -23.5625 L 9.640625 -23.5625 L 9.640625 -17.296875 L 19.28125 -17.296875 L 19.28125 -12.34375 L 9.640625 -12.34375 L 9.640625 -5 L 20 -5 Z M 20 0 "/></g></g></g><g fill="#000000" fill-opacity="1"><g transform="translate(94.703827, 162.359684)"><g><path d="M 15.703125 -23.890625 C 13.421875 -23.890625 11.65625 -23.035156 10.40625 -21.328125 C 9.164062 -19.617188 8.546875 -17.234375 8.546875 -14.171875 C 8.546875 -7.816406 10.929688 -4.640625 15.703125 -4.640625 C 17.703125 -4.640625 20.125 -5.140625 22.96875 -6.140625 L 22.96875 -1.078125 C 20.632812 -0.0976562 18.019531 0.390625 15.125 0.390625 C 10.976562 0.390625 7.804688 -0.863281 5.609375 -3.375 C 3.421875 -5.894531 2.328125 -9.507812 2.328125 -14.21875 C 2.328125 -17.175781 2.863281 -19.769531 3.9375 -22 C 5.019531 -24.226562 6.570312 -25.9375 8.59375 -27.125 C 10.613281 -28.320312 12.984375 -28.921875 15.703125 -28.921875 C 18.472656 -28.921875 21.253906 -28.25 24.046875 -26.90625 L 22.09375 -22 C 21.03125 -22.5 19.957031 -22.9375 18.875 -23.3125 C 17.800781 -23.695312 16.742188 -23.890625 15.703125 -23.890625 Z M 15.703125 -23.890625 "/></g></g></g><g fill="#000000" fill-opacity="1"><g transform="translate(120.14825, 162.359684)"><g><path d="M 26.953125 0 L 20.921875 0 L 20.921875 -12.3125 L 9.640625 -12.3125 L 9.640625 0 L 3.59375 0 L 3.59375 -28.515625 L 9.640625 -28.515625 L 9.640625 -17.34375 L 20.921875 -17.34375 L 20.921875 -28.515625 L 26.953125 -28.515625 Z M 26.953125 0 "/></g></g></g><g fill="#00c2ff" fill-opacity="1"><g transform="translate(150.710949, 162.359684)"><g><path d="M 28.875 0 L 21.203125 0 L 8.796875 -21.5625 L 8.625 -21.5625 C 8.863281 -17.757812 8.984375 -15.046875 8.984375 -13.421875 L 8.984375 0 L 3.59375 0 L 3.59375 -28.515625 L 11.21875 -28.515625 L 23.59375 -7.15625 L 23.734375 -7.15625 C 23.535156 -10.863281 23.4375 -13.484375 23.4375 -15.015625 L 23.4375 -28.515625 L 28.875 -28.515625 Z M 28.875 0 "/></g></g></g><g fill="#00c2ff" fill-opacity="1"><g transform="translate(183.174522, 162.359684)"><g><path d="M 21.046875 0 L 18.96875 -6.78125 L 8.578125 -6.78125 L 6.515625 0 L 0 0 L 10.0625 -28.625 L 17.453125 -28.625 L 27.546875 0 Z M 17.53125 -11.859375 C 15.625 -18.003906 14.546875 -21.476562 14.296875 -22.28125 C 14.054688 -23.09375 13.882812 -23.734375 13.78125 -24.203125 C 13.351562 -22.535156 12.125 -18.421875 10.09375 -11.859375 Z M 17.53125 -11.859375 "/></g></g></g><g fill="#00c2ff" fill-opacity="1"><g transform="translate(210.724691, 162.359684)"><g><path d="M 19.859375 -28.515625 L 25.953125 -28.515625 L 16.265625 0 L 9.671875 0 L 0 -28.515625 L 6.109375 -28.515625 L 11.46875 -11.546875 C 11.769531 -10.546875 12.078125 -9.378906 12.390625 -8.046875 C 12.710938 -6.710938 12.910156 -5.785156 12.984375 -5.265625 C 13.128906 -6.460938 13.617188 -8.554688 14.453125 -11.546875 Z M 19.859375 -28.515625 "/></g></g></g><g fill="#00c2ff" fill-opacity="1"><g transform="translate(236.676052, 162.359684)"><g><path d="M 20 0 L 3.59375 0 L 3.59375 -28.515625 L 20 -28.515625 L 20 -23.5625 L 9.640625 -23.5625 L 9.640625 -17.296875 L 19.28125 -17.296875 L 19.28125 -12.34375 L 9.640625 -12.34375 L 9.640625 -5 L 20 -5 Z M 20 0 "/></g></g></g><g fill="#00c2ff" fill-opacity="1"><g transform="translate(259.039849, 162.359684)"><g><path d="M 3.59375 0 L 3.59375 -28.515625 L 9.640625 -28.515625 L 9.640625 0 Z M 3.59375 0 "/></g></g></g><g fill="#00c2ff" fill-opacity="1"><g transform="translate(272.259248, 162.359684)"><g><path d="M 21.046875 0 L 18.96875 -6.78125 L 8.578125 -6.78125 L 6.515625 0 L 0 0 L 10.0625 -28.625 L 17.453125 -28.625 L 27.546875 0 Z M 17.53125 -11.859375 C 15.625 -18.003906 14.546875 -21.476562 14.296875 -22.28125 C 14.054688 -23.09375 13.882812 -23.734375 13.78125 -24.203125 C 13.351562 -22.535156 12.125 -18.421875 10.09375 -11.859375 Z M 17.53125 -11.859375 "/></g></g></g></svg>